<svg id="svg" version="1.1" xmlns="http://www.w3.org/2000/svg" xmlns:xlink="http://www.w3.org/1999/xlink" width="400" height="400" viewBox="0, 0, 400,400"><g id="svgg"><path id="path0" d="M129.333 210.095 C 129.333 210.395,129.723 210.833,129.988 210.833 C 130.086 210.833,130.167 210.901,130.167 210.984 C 130.167 211.066,130.393 211.213,130.669 211.309 C 130.945 211.405,131.216 211.600,131.270 211.742 C 131.324 211.884,131.473 212.000,131.601 212.000 C 131.729 212.000,131.965 212.115,132.125 212.256 C 132.874 212.913,133.485 213.333,133.692 213.333 C 133.817 213.333,134.013 213.483,134.128 213.667 C 134.242 213.850,134.448 214.000,134.585 214.000 C 134.721 214.000,134.833 214.070,134.833 214.155 C 134.833 214.241,135.002 214.364,135.208 214.429 C 135.415 214.494,135.705 214.687,135.853 214.857 C 136.001 215.027,136.207 215.167,136.311 215.167 C 136.415 215.167,136.500 215.240,136.500 215.330 C 136.500 215.420,136.673 215.537,136.885 215.590 C 137.097 215.643,137.478 215.907,137.733 216.177 C 137.987 216.446,138.303 216.667,138.436 216.667 C 138.569 216.667,138.720 216.779,138.773 216.917 C 138.826 217.054,139.003 217.167,139.167 217.167 C 139.330 217.167,139.509 217.283,139.563 217.425 C 139.618 217.566,139.888 217.761,140.164 217.858 C 140.441 217.954,140.667 218.100,140.667 218.183 C 140.667 218.266,140.768 218.333,140.891 218.333 C 141.014 218.333,141.251 218.483,141.417 218.667 C 141.583 218.850,141.815 219.000,141.934 219.000 C 142.053 219.000,142.210 219.094,142.283 219.209 C 142.497 219.545,143.622 220.333,143.888 220.333 C 144.022 220.333,144.176 220.449,144.230 220.591 C 144.284 220.733,144.555 220.928,144.831 221.024 C 145.107 221.120,145.333 221.267,145.333 221.350 C 145.333 221.432,145.429 221.500,145.547 221.500 C 145.664 221.500,145.868 221.650,146.000 221.833 C 146.132 222.017,146.376 222.167,146.542 222.167 C 146.708 222.167,146.887 222.279,146.940 222.417 C 146.992 222.554,147.140 222.667,147.266 222.667 C 147.393 222.667,147.591 222.817,147.705 223.000 C 147.820 223.183,148.005 223.333,148.116 223.333 C 148.227 223.333,148.506 223.521,148.735 223.750 C 148.964 223.979,149.259 224.167,149.391 224.167 C 149.523 224.167,149.674 224.279,149.727 224.417 C 149.780 224.554,149.959 224.667,150.125 224.667 C 150.291 224.667,150.535 224.817,150.667 225.000 C 150.799 225.183,151.003 225.333,151.120 225.333 C 151.245 225.333,151.333 225.537,151.333 225.823 C 151.333 226.093,151.408 226.360,151.500 226.417 C 151.610 226.485,151.667 241.530,151.667 271.010 L 151.667 315.500 178.357 315.500 L 205.047 315.500 205.857 314.642 C 206.302 314.170,206.667 313.720,206.667 313.641 C 206.667 313.563,206.920 313.256,207.231 312.958 C 207.541 312.660,207.846 312.248,207.909 312.042 C 207.971 311.835,208.089 311.667,208.171 311.667 C 208.355 311.667,209.167 310.806,209.167 310.612 C 209.167 310.534,209.504 310.142,209.917 309.741 C 210.329 309.340,210.667 308.969,210.667 308.916 C 210.667 308.796,210.924 308.483,211.625 307.746 C 211.923 307.434,212.167 307.098,212.167 307.000 C 212.167 306.903,212.467 306.547,212.833 306.210 C 213.200 305.873,213.500 305.518,213.500 305.422 C 213.500 305.326,213.744 305.011,214.042 304.721 C 214.685 304.096,215.000 303.720,215.000 303.576 C 215.000 303.518,215.337 303.142,215.750 302.741 C 216.162 302.340,216.500 301.926,216.500 301.820 C 216.500 301.714,216.800 301.337,217.167 300.981 C 217.533 300.625,217.833 300.259,217.833 300.167 C 217.833 300.075,218.115 299.715,218.458 299.367 C 218.802 299.018,219.308 298.450,219.583 298.104 C 219.858 297.758,220.252 297.296,220.458 297.078 C 220.665 296.860,220.833 296.637,220.833 296.583 C 220.833 296.529,221.171 296.142,221.583 295.723 C 221.996 295.305,222.333 294.905,222.333 294.835 C 222.333 294.765,222.633 294.389,223.000 294.000 C 223.367 293.611,223.667 293.189,223.667 293.063 C 223.667 292.937,223.742 292.833,223.833 292.833 C 223.944 292.833,224.000 282.584,224.000 262.419 L 224.000 232.005 222.766 230.772 C 222.088 230.093,221.305 229.403,221.026 229.239 C 220.746 229.074,220.556 228.878,220.602 228.803 C 220.648 228.728,220.574 228.667,220.438 228.667 C 220.301 228.667,220.140 228.511,220.079 228.321 C 220.019 228.131,219.936 228.008,219.895 228.050 C 219.854 228.091,217.817 226.124,215.368 223.679 C 212.920 221.233,210.785 219.183,210.625 219.122 C 210.465 219.060,210.333 218.912,210.333 218.791 C 210.333 218.671,210.096 218.432,209.805 218.260 C 209.276 217.947,207.577 216.333,207.778 216.333 C 207.836 216.333,207.704 216.185,207.484 216.004 C 207.264 215.823,207.019 215.607,206.940 215.523 C 206.861 215.439,206.609 215.183,206.380 214.954 C 206.150 214.725,205.888 214.462,205.796 214.370 C 205.705 214.279,205.442 214.016,205.213 213.787 C 204.984 213.558,204.732 213.306,204.653 213.227 C 204.574 213.148,204.323 212.896,204.096 212.667 C 203.869 212.438,203.585 212.160,203.466 212.050 C 203.347 211.939,203.167 211.752,203.066 211.633 C 202.964 211.514,202.702 211.253,202.482 211.053 C 202.263 210.853,201.993 210.591,201.883 210.470 C 201.773 210.349,201.570 210.156,201.432 210.042 C 201.006 209.688,129.333 209.741,129.333 210.095 M184.750 237.805 L 188.250 237.917 189.626 239.292 C 190.383 240.048,191.043 240.667,191.092 240.667 C 191.141 240.667,191.271 240.743,191.382 240.836 C 191.493 240.930,191.764 241.155,191.984 241.336 C 192.204 241.518,192.337 241.667,192.279 241.667 C 192.221 241.667,192.603 242.079,193.129 242.583 C 194.168 243.579,194.234 243.645,194.799 244.255 C 195.010 244.481,195.248 244.667,195.330 244.667 C 195.411 244.667,195.520 244.798,195.571 244.958 C 195.623 245.119,195.890 245.400,196.165 245.583 L 196.666 245.917 196.666 263.125 C 196.666 273.940,196.608 280.333,196.508 280.333 C 196.420 280.333,196.166 280.529,195.943 280.769 C 195.720 281.008,195.462 281.279,195.370 281.370 C 195.279 281.462,195.016 281.725,194.787 281.954 C 194.558 282.183,194.295 282.445,194.204 282.537 C 194.112 282.629,193.850 282.891,193.620 283.120 C 193.391 283.350,193.129 283.612,193.037 283.704 C 192.945 283.795,192.675 284.053,192.435 284.276 C 192.196 284.499,192.000 284.748,192.000 284.830 C 192.000 284.911,191.854 285.024,191.675 285.081 C 191.497 285.137,191.305 285.326,191.250 285.500 C 191.195 285.674,191.022 285.857,190.866 285.908 C 190.711 285.958,190.211 286.337,189.757 286.750 L 188.931 287.500 183.965 287.500 L 179.000 287.500 179.000 262.481 L 179.000 237.461 180.125 237.578 C 180.744 237.642,182.825 237.744,184.750 237.805 M233.167 238.833 C 233.167 239.017,233.242 239.167,233.333 239.167 C 233.425 239.167,233.500 239.311,233.500 239.488 C 233.500 239.665,233.677 239.949,233.894 240.119 C 234.111 240.290,234.404 240.651,234.547 240.923 C 234.689 241.194,234.961 241.527,235.153 241.662 C 235.344 241.797,235.500 241.969,235.500 242.044 C 235.500 242.190,235.692 242.443,236.292 243.084 C 236.498 243.304,236.667 243.545,236.667 243.619 C 236.667 243.693,236.854 243.956,237.083 244.203 C 237.313 244.450,237.500 244.704,237.500 244.768 C 237.500 244.831,237.762 245.138,238.083 245.450 C 238.404 245.761,238.667 246.091,238.667 246.183 C 238.667 246.275,238.929 246.620,239.250 246.950 C 239.571 247.281,239.833 247.618,239.833 247.700 C 239.833 247.782,240.021 248.023,240.250 248.235 C 240.479 248.448,240.667 248.702,240.667 248.801 C 240.667 248.900,240.799 249.079,240.961 249.199 C 241.123 249.319,241.397 249.638,241.570 249.908 C 241.743 250.178,242.060 250.576,242.276 250.791 C 242.491 251.006,242.667 251.256,242.667 251.346 C 242.667 251.437,242.929 251.774,243.250 252.094 C 243.571 252.415,243.833 252.760,243.833 252.861 C 243.833 253.056,244.469 253.667,244.671 253.667 C 244.738 253.667,244.835 253.886,244.889 254.153 C 244.947 254.442,245.125 254.684,245.326 254.748 C 245.514 254.807,245.667 254.969,245.667 255.108 C 245.667 255.247,245.916 255.603,246.220 255.898 C 246.998 256.654,246.984 256.565,247.011 260.995 C 247.025 263.213,247.100 264.958,247.181 264.908 C 247.261 264.858,247.364 267.653,247.413 271.201 C 247.460 274.711,247.539 280.415,247.587 283.875 C 247.642 287.797,247.736 290.167,247.837 290.167 C 247.939 290.167,248.000 291.695,248.000 294.221 C 248.000 298.533,248.096 299.000,248.979 299.000 C 249.093 299.000,249.145 299.067,249.095 299.148 C 248.982 299.331,249.406 299.705,249.557 299.554 C 249.617 299.494,249.667 299.561,249.667 299.703 C 249.667 299.845,249.859 300.087,250.093 300.241 C 250.328 300.395,253.962 303.968,258.169 308.182 L 265.819 315.843 273.829 315.827 C 278.744 315.817,281.802 315.751,281.743 315.656 C 281.684 315.560,287.942 315.500,298.073 315.500 L 314.500 315.500 314.500 315.061 C 314.500 314.806,314.325 314.459,314.083 314.235 C 313.854 314.023,313.667 313.766,313.667 313.665 C 313.667 313.563,313.592 313.527,313.500 313.583 C 313.408 313.640,313.333 313.572,313.333 313.432 C 313.333 313.292,313.110 312.932,312.836 312.631 C 312.033 311.747,311.872 311.548,311.556 311.053 C 311.391 310.795,311.051 310.387,310.801 310.147 C 310.550 309.907,310.387 309.668,310.439 309.616 C 310.491 309.565,310.263 309.252,309.933 308.922 C 309.603 308.592,309.333 308.240,309.333 308.139 C 309.333 307.944,308.698 307.333,308.495 307.333 C 308.429 307.333,308.331 307.114,308.278 306.847 C 308.220 306.558,308.042 306.316,307.840 306.252 C 307.653 306.193,307.500 306.043,307.500 305.920 C 307.500 305.796,307.237 305.425,306.917 305.095 C 306.596 304.764,306.333 304.393,306.333 304.270 C 306.333 304.147,306.146 303.906,305.917 303.734 C 305.688 303.562,305.500 303.342,305.500 303.245 C 305.500 303.149,305.237 302.791,304.917 302.451 C 304.596 302.111,304.333 301.790,304.333 301.738 C 304.333 301.686,304.240 301.538,304.125 301.411 C 303.671 300.904,303.500 300.676,303.500 300.576 C 303.500 300.519,303.237 300.217,302.917 299.906 C 302.596 299.594,302.333 299.242,302.333 299.123 C 302.333 299.004,302.179 298.797,301.990 298.662 C 301.801 298.527,301.531 298.176,301.390 297.881 C 301.250 297.587,300.992 297.300,300.817 297.245 C 300.643 297.190,300.500 297.009,300.500 296.843 C 300.500 296.678,300.237 296.318,299.917 296.044 C 299.596 295.770,299.333 295.464,299.333 295.364 C 299.333 295.264,299.164 295.010,298.958 294.799 C 298.752 294.589,298.439 294.192,298.263 293.917 C 298.087 293.642,297.806 293.319,297.638 293.199 C 297.471 293.079,297.333 292.876,297.333 292.748 C 297.333 292.620,297.146 292.328,296.917 292.098 C 296.688 291.869,296.500 291.638,296.500 291.584 C 296.500 291.530,296.312 291.282,296.081 291.034 L 295.663 290.583 298.040 290.543 C 300.722 290.497,301.167 290.431,301.167 290.080 C 301.167 289.944,301.233 289.833,301.314 289.833 C 301.395 289.833,301.505 289.702,301.559 289.542 C 301.704 289.109,302.036 288.631,302.458 288.247 C 302.665 288.060,302.833 287.785,302.833 287.638 C 302.833 287.490,302.937 287.329,303.063 287.281 C 303.270 287.202,304.333 285.767,304.333 285.567 C 304.333 285.522,304.521 285.297,304.750 285.068 C 304.979 284.839,305.167 284.579,305.167 284.491 C 305.167 284.403,305.389 284.097,305.662 283.812 C 305.934 283.528,306.201 283.153,306.256 282.981 C 306.311 282.808,306.426 282.667,306.511 282.667 C 306.597 282.667,306.667 282.586,306.667 282.488 C 306.667 282.390,306.760 282.205,306.875 282.077 C 307.352 281.545,307.500 281.340,307.500 281.210 C 307.500 281.135,307.650 280.965,307.833 280.833 C 308.017 280.701,308.167 280.501,308.167 280.387 C 308.167 280.274,308.354 279.994,308.583 279.765 C 308.813 279.536,309.000 279.302,309.000 279.246 C 309.000 279.189,309.094 279.038,309.208 278.911 C 309.685 278.379,309.833 278.173,309.833 278.044 C 309.833 277.969,309.983 277.799,310.167 277.667 C 310.350 277.535,310.500 277.336,310.500 277.225 C 310.500 277.114,310.594 276.925,310.708 276.804 C 310.823 276.682,311.123 276.307,311.375 275.969 L 311.833 275.356 311.833 264.382 C 311.833 252.366,311.901 253.229,310.880 252.201 C 310.671 251.990,310.498 251.728,310.496 251.617 C 310.494 251.507,310.232 251.192,309.913 250.918 C 309.594 250.644,309.333 250.318,309.333 250.193 C 309.333 250.069,309.108 249.757,308.833 249.500 C 308.558 249.243,308.333 248.951,308.333 248.850 C 308.333 248.749,308.254 248.667,308.157 248.667 C 308.060 248.667,308.017 248.607,308.062 248.535 C 308.106 248.463,307.924 248.256,307.655 248.077 C 307.387 247.897,307.167 247.659,307.167 247.547 C 307.167 247.436,306.909 247.087,306.594 246.772 C 306.280 246.458,306.054 246.169,306.092 246.130 C 306.131 246.092,305.901 245.775,305.581 245.426 C 305.261 245.077,305.000 244.737,305.000 244.670 C 305.000 244.604,304.775 244.314,304.500 244.026 C 304.225 243.738,304.000 243.445,304.000 243.375 C 304.000 243.184,303.178 242.333,302.993 242.333 C 302.905 242.333,302.833 242.193,302.833 242.021 C 302.833 241.850,302.571 241.485,302.250 241.211 C 301.929 240.937,301.667 240.630,301.667 240.528 C 301.667 240.427,301.413 240.091,301.102 239.780 C 300.792 239.470,300.487 239.055,300.424 238.858 L 300.311 238.500 266.739 238.500 C 233.278 238.500,233.167 238.501,233.167 238.833 M315.500 238.758 C 315.500 239.073,316.161 239.756,316.602 239.896 C 316.780 239.953,317.036 240.159,317.171 240.356 C 317.391 240.675,317.686 240.987,318.367 241.617 C 318.486 241.727,318.666 241.915,318.768 242.034 C 319.043 242.357,319.821 243.000,319.937 243.000 C 319.992 243.000,320.747 243.713,321.613 244.583 C 322.480 245.454,323.255 246.167,323.337 246.167 C 323.418 246.167,324.171 246.846,325.010 247.677 C 325.849 248.507,326.565 249.157,326.601 249.121 C 326.637 249.085,327.417 249.788,328.334 250.683 C 329.251 251.579,330.147 252.357,330.325 252.414 C 330.504 252.471,330.696 252.663,330.753 252.842 C 330.809 253.021,330.926 253.167,331.011 253.167 C 331.097 253.167,331.167 253.284,331.167 253.427 C 331.167 253.569,331.242 253.640,331.333 253.583 C 331.433 253.522,331.500 253.720,331.500 254.073 C 331.500 254.400,331.568 254.667,331.650 254.667 C 331.733 254.667,331.853 255.117,331.917 255.667 C 331.981 256.217,332.100 256.667,332.183 256.667 C 332.266 256.667,332.333 256.887,332.333 257.157 C 332.333 257.426,332.408 257.693,332.500 257.750 C 332.592 257.807,332.667 258.036,332.667 258.260 C 332.667 258.484,332.732 258.667,332.812 258.667 C 332.892 258.667,333.008 259.117,333.070 259.667 C 333.132 260.217,333.254 260.667,333.342 260.667 C 333.429 260.667,333.500 260.923,333.500 261.236 C 333.500 261.549,333.573 261.831,333.661 261.861 C 333.750 261.892,333.841 262.155,333.863 262.447 C 333.885 262.738,333.956 262.944,334.021 262.904 C 334.086 262.863,334.192 263.318,334.256 263.915 C 334.320 264.512,334.438 265.000,334.519 265.000 C 334.600 265.000,334.667 265.188,334.667 265.417 C 334.667 265.646,334.732 265.833,334.812 265.833 C 334.892 265.833,335.008 266.283,335.070 266.833 C 335.132 267.383,335.254 267.833,335.342 267.833 C 335.429 267.833,335.500 268.096,335.500 268.417 C 335.500 268.737,335.575 269.000,335.667 269.000 C 335.758 269.000,335.833 269.225,335.833 269.500 C 335.833 269.775,335.899 270.000,335.978 270.000 C 336.058 270.000,336.175 270.450,336.237 271.000 C 336.299 271.550,336.405 272.000,336.473 272.000 C 336.540 272.000,336.614 272.244,336.637 272.542 C 336.659 272.840,336.750 273.108,336.839 273.139 C 336.927 273.169,337.000 273.451,337.000 273.764 C 337.000 274.077,337.070 274.333,337.155 274.333 C 337.240 274.333,337.361 274.747,337.424 275.252 C 337.487 275.758,337.605 276.212,337.686 276.262 C 337.767 276.312,337.833 276.536,337.833 276.760 C 337.833 276.984,337.908 277.167,338.000 277.167 C 338.092 277.167,338.167 277.429,338.167 277.750 C 338.167 278.071,338.234 278.333,338.317 278.333 C 338.400 278.333,338.519 278.783,338.583 279.333 C 338.647 279.883,338.767 280.333,338.850 280.333 C 338.932 280.333,339.000 280.600,339.000 280.927 C 339.000 281.280,339.067 281.478,339.167 281.417 C 339.266 281.355,339.333 281.554,339.333 281.907 C 339.333 282.233,339.401 282.500,339.484 282.500 C 339.566 282.500,339.686 282.950,339.750 283.500 C 339.814 284.050,339.934 284.500,340.016 284.500 C 340.099 284.500,340.167 284.762,340.167 285.083 C 340.167 285.404,340.242 285.667,340.333 285.667 C 340.425 285.667,340.500 285.812,340.500 285.990 C 340.500 286.168,340.565 286.354,340.645 286.403 C 340.724 286.452,340.841 286.944,340.903 287.496 C 340.965 288.048,341.088 288.500,341.175 288.500 C 341.262 288.500,341.333 288.762,341.333 289.083 C 341.333 289.404,341.408 289.667,341.500 289.667 C 341.592 289.667,341.667 289.839,341.667 290.050 C 341.667 290.261,341.760 290.534,341.875 290.658 C 342.029 290.823,342.030 290.852,341.881 290.768 C 341.738 290.688,341.751 290.827,341.923 291.238 C 342.057 291.560,342.167 292.050,342.167 292.328 C 342.167 292.606,342.242 292.833,342.333 292.833 C 342.425 292.833,342.500 293.016,342.500 293.240 C 342.500 293.464,342.566 293.688,342.647 293.738 C 342.728 293.788,342.846 294.241,342.909 294.745 C 342.972 295.249,343.093 295.705,343.178 295.757 C 343.264 295.810,343.333 296.069,343.333 296.333 C 343.333 296.598,343.408 296.860,343.500 296.917 C 343.592 296.973,343.667 297.203,343.667 297.427 C 343.667 297.650,343.726 297.833,343.799 297.833 C 343.872 297.833,344.023 298.340,344.134 298.958 C 344.452 300.719,344.527 301.000,344.686 301.000 C 344.767 301.000,344.833 301.275,344.833 301.611 C 344.833 301.947,344.888 302.167,344.955 302.100 C 345.023 302.033,345.176 302.452,345.296 303.031 C 345.416 303.610,345.557 304.290,345.609 304.542 C 345.662 304.794,345.771 305.000,345.852 305.000 C 345.934 305.000,346.000 305.262,346.000 305.583 C 346.000 305.904,346.068 306.167,346.150 306.167 C 346.233 306.167,346.353 306.617,346.417 307.167 C 346.481 307.717,346.600 308.209,346.683 308.260 C 346.766 308.311,346.833 308.536,346.833 308.760 C 346.833 308.984,346.908 309.167,347.000 309.167 C 347.092 309.167,347.167 309.429,347.167 309.750 C 347.167 310.071,347.232 310.333,347.312 310.333 C 347.392 310.333,347.508 310.783,347.570 311.333 C 347.632 311.883,347.754 312.333,347.842 312.333 C 347.929 312.333,348.000 312.596,348.000 312.917 C 348.000 313.237,348.075 313.500,348.167 313.500 C 348.258 313.500,348.333 313.688,348.333 313.917 C 348.333 314.146,348.408 314.333,348.500 314.333 C 348.592 314.333,348.667 314.596,348.667 314.917 L 348.667 315.500 361.833 315.500 C 370.068 315.500,375.000 315.559,375.000 315.659 C 375.000 315.888,395.370 315.806,395.447 315.576 C 395.479 315.480,395.354 315.239,395.169 315.041 C 394.984 314.843,394.833 314.621,394.832 314.549 C 394.831 314.476,394.493 314.052,394.082 313.605 C 393.670 313.159,393.333 312.731,393.333 312.655 C 393.333 312.463,392.522 311.667,392.326 311.667 C 392.238 311.667,392.167 311.526,392.167 311.355 C 392.167 311.183,391.904 310.818,391.583 310.544 C 391.262 310.270,391.000 309.964,391.000 309.863 C 391.000 309.762,390.700 309.374,390.333 309.000 C 389.967 308.626,389.667 308.243,389.667 308.149 C 389.667 308.055,389.404 307.730,389.083 307.427 C 388.762 307.125,388.500 306.806,388.500 306.719 C 388.500 306.631,388.331 306.402,388.125 306.208 C 387.650 305.762,387.333 305.377,387.333 305.244 C 387.333 305.187,386.996 304.803,386.583 304.390 C 386.171 303.978,385.833 303.561,385.833 303.465 C 385.833 303.368,385.571 303.042,385.250 302.739 C 384.929 302.437,384.667 302.125,384.667 302.046 C 384.667 301.967,384.404 301.624,384.083 301.284 C 383.762 300.944,383.500 300.591,383.500 300.500 C 383.500 300.408,383.430 300.333,383.345 300.333 C 383.259 300.333,383.143 300.187,383.086 300.009 C 383.029 299.830,382.845 299.640,382.676 299.586 C 382.507 299.533,382.279 299.272,382.169 299.006 C 382.059 298.741,381.789 298.388,381.568 298.222 C 381.174 297.927,381.005 297.167,381.333 297.167 C 381.425 297.167,381.500 296.979,381.500 296.750 C 381.500 296.521,381.566 296.333,381.648 296.333 C 381.729 296.333,381.838 296.127,381.891 295.875 C 382.305 293.876,382.406 293.500,382.528 293.500 C 382.604 293.500,382.667 293.275,382.667 293.000 C 382.667 292.725,382.735 292.500,382.818 292.500 C 382.901 292.500,383.020 292.125,383.083 291.667 C 383.146 291.208,383.266 290.833,383.349 290.833 C 383.432 290.833,383.500 290.646,383.500 290.417 C 383.500 290.188,383.575 290.000,383.667 290.000 C 383.758 290.000,383.833 289.817,383.833 289.593 C 383.833 289.369,383.901 289.144,383.984 289.093 C 384.067 289.042,384.187 288.625,384.250 288.166 C 384.313 287.708,384.433 287.333,384.516 287.333 C 384.599 287.333,384.667 287.071,384.667 286.750 C 384.667 286.429,384.742 286.167,384.833 286.167 C 384.925 286.167,385.000 285.979,385.000 285.750 C 385.000 285.521,385.068 285.333,385.151 285.333 C 385.234 285.333,385.354 284.958,385.417 284.500 C 385.480 284.042,385.599 283.667,385.682 283.667 C 385.765 283.667,385.833 283.442,385.833 283.167 C 385.833 282.892,385.908 282.667,386.000 282.667 C 386.092 282.667,386.167 282.479,386.167 282.250 C 386.167 282.021,386.232 281.833,386.312 281.833 C 386.392 281.833,386.507 281.458,386.568 281.000 C 386.628 280.542,386.751 280.167,386.839 280.167 C 386.928 280.167,387.000 279.942,387.000 279.667 C 387.000 279.392,387.075 279.167,387.167 279.167 C 387.258 279.167,387.333 278.904,387.333 278.583 C 387.333 278.262,387.417 278.000,387.519 278.000 C 387.628 278.000,387.672 277.827,387.626 277.583 C 387.582 277.354,387.611 277.167,387.690 277.167 C 387.769 277.167,387.833 276.979,387.833 276.750 C 387.833 276.521,387.908 276.333,388.000 276.333 C 388.092 276.333,388.167 276.146,388.167 275.917 C 388.167 275.688,388.242 275.500,388.333 275.500 C 388.425 275.500,388.500 275.317,388.500 275.093 C 388.500 274.869,388.568 274.644,388.651 274.593 C 388.734 274.542,388.854 274.125,388.917 273.666 C 388.980 273.208,389.099 272.833,389.182 272.833 C 389.265 272.833,389.333 272.646,389.333 272.417 C 389.333 272.188,389.391 272.000,389.461 272.000 C 389.625 272.000,390.022 270.337,389.904 270.146 C 389.854 270.066,389.893 270.000,389.990 270.000 C 390.087 270.000,390.167 269.775,390.167 269.500 C 390.167 269.225,390.242 269.000,390.333 269.000 C 390.425 269.000,390.500 268.813,390.500 268.583 C 390.500 268.354,390.568 268.167,390.651 268.167 C 390.734 268.167,390.854 267.792,390.917 267.333 C 390.980 266.875,391.099 266.500,391.182 266.500 C 391.265 266.500,391.333 266.313,391.333 266.083 C 391.333 265.854,391.408 265.667,391.500 265.667 C 391.592 265.667,391.667 265.442,391.667 265.167 C 391.667 264.892,391.735 264.667,391.818 264.667 C 391.901 264.667,392.020 264.292,392.083 263.833 C 392.146 263.375,392.266 263.000,392.349 263.000 C 392.432 263.000,392.500 262.817,392.500 262.593 C 392.500 262.369,392.575 262.140,392.667 262.083 C 392.758 262.027,392.833 261.760,392.833 261.490 C 392.833 261.221,392.903 261.000,392.988 261.000 C 393.073 261.000,393.194 260.587,393.257 260.083 C 393.320 259.579,393.438 259.167,393.519 259.167 C 393.600 259.167,393.667 258.979,393.667 258.750 C 393.667 258.521,393.742 258.333,393.833 258.333 C 393.925 258.333,394.000 258.150,394.000 257.927 C 394.000 257.703,394.071 257.476,394.157 257.423 C 394.243 257.369,394.365 256.989,394.426 256.577 C 394.488 256.166,394.605 255.788,394.686 255.738 C 394.767 255.688,394.833 255.468,394.833 255.250 C 394.833 255.032,394.908 254.807,395.000 254.750 C 395.092 254.693,395.167 254.431,395.167 254.167 C 395.167 253.902,395.237 253.643,395.324 253.589 C 395.410 253.536,395.531 253.156,395.593 252.746 C 395.654 252.336,395.771 252.000,395.852 252.000 C 395.934 252.000,396.000 251.813,396.000 251.583 C 396.000 251.354,396.075 251.167,396.167 251.167 C 396.258 251.167,396.333 250.946,396.333 250.677 C 396.333 250.407,396.404 250.143,396.490 250.089 C 396.577 250.036,396.698 249.656,396.759 249.246 C 396.821 248.836,396.938 248.500,397.019 248.500 C 397.100 248.500,397.167 248.317,397.167 248.093 C 397.167 247.869,397.232 247.646,397.311 247.597 C 397.437 247.519,397.699 246.473,397.740 245.887 C 397.748 245.779,397.810 245.635,397.877 245.567 C 397.945 245.500,398.000 245.269,398.000 245.056 C 398.000 244.842,398.075 244.667,398.167 244.667 C 398.258 244.667,398.333 244.479,398.333 244.250 C 398.333 244.021,398.401 243.833,398.484 243.833 C 398.567 243.833,398.687 243.458,398.750 243.000 C 398.813 242.542,398.933 242.167,399.016 242.167 C 399.099 242.167,399.167 241.984,399.167 241.760 C 399.167 241.536,399.242 241.307,399.333 241.250 C 399.425 241.193,399.500 240.970,399.500 240.754 C 399.500 240.538,399.570 240.336,399.656 240.306 C 399.742 240.275,399.865 239.856,399.928 239.375 L 400.043 238.500 386.771 238.500 C 373.611 238.500,373.500 238.503,373.500 238.833 C 373.500 239.017,373.432 239.167,373.349 239.167 C 373.266 239.167,373.146 239.542,373.083 240.000 C 373.020 240.458,372.901 240.833,372.818 240.833 C 372.735 240.833,372.667 241.016,372.667 241.240 C 372.667 241.464,372.592 241.693,372.500 241.750 C 372.408 241.807,372.333 242.027,372.333 242.239 C 372.333 242.452,372.221 242.895,372.083 243.224 C 371.946 243.553,371.833 244.013,371.833 244.245 C 371.833 244.477,371.758 244.667,371.667 244.667 C 371.575 244.667,371.500 244.854,371.500 245.083 C 371.500 245.313,371.435 245.500,371.355 245.500 C 371.275 245.500,371.159 245.950,371.097 246.500 C 371.034 247.050,370.912 247.500,370.825 247.500 C 370.738 247.500,370.667 247.688,370.667 247.917 C 370.667 248.146,370.592 248.333,370.500 248.333 C 370.408 248.333,370.333 248.516,370.333 248.740 C 370.333 248.964,370.266 249.189,370.183 249.240 C 370.100 249.291,369.981 249.783,369.917 250.333 C 369.853 250.883,369.733 251.333,369.650 251.333 C 369.568 251.333,369.500 251.521,369.500 251.750 C 369.500 251.979,369.425 252.167,369.333 252.167 C 369.242 252.167,369.167 252.350,369.167 252.573 C 369.167 252.797,369.096 253.024,369.010 253.077 C 368.923 253.131,368.806 253.529,368.748 253.962 C 368.650 254.700,368.499 255.181,368.147 255.873 C 368.066 256.032,368.000 256.313,368.000 256.498 C 368.000 256.682,367.929 256.833,367.842 256.833 C 367.754 256.833,367.632 257.283,367.570 257.833 C 367.508 258.383,367.392 258.833,367.312 258.833 C 367.232 258.833,367.167 259.021,367.167 259.250 C 367.167 259.479,367.092 259.667,367.000 259.667 C 366.908 259.667,366.833 259.850,366.833 260.073 C 366.833 260.297,366.765 260.522,366.682 260.574 C 366.599 260.625,366.480 261.042,366.417 261.500 C 366.354 261.958,366.250 262.333,366.186 262.333 C 366.123 262.333,366.053 262.577,366.030 262.875 C 366.008 263.173,365.917 263.442,365.828 263.472 C 365.739 263.503,365.667 263.697,365.667 263.903 C 365.667 264.109,365.610 264.334,365.542 264.403 C 365.408 264.537,365.032 265.905,364.886 266.790 C 364.837 267.088,364.739 267.295,364.668 267.251 C 364.596 267.206,364.487 267.582,364.424 268.085 C 364.361 268.588,364.240 269.000,364.155 269.000 C 364.070 269.000,364.000 269.188,364.000 269.417 C 364.000 269.646,363.925 269.833,363.833 269.833 C 363.742 269.833,363.667 270.096,363.667 270.417 C 363.667 270.737,363.599 271.000,363.516 271.000 C 363.433 271.000,363.313 271.375,363.250 271.833 C 363.187 272.292,363.072 272.667,362.995 272.667 C 362.918 272.667,362.824 272.910,362.787 273.208 C 362.721 273.742,362.720 273.740,362.693 273.125 C 362.679 272.781,362.592 272.500,362.500 272.500 C 362.408 272.500,362.333 272.317,362.333 272.093 C 362.333 271.869,362.267 271.645,362.186 271.595 C 362.105 271.545,361.987 271.092,361.924 270.588 C 361.862 270.084,361.740 269.629,361.655 269.576 C 361.570 269.523,361.500 269.297,361.500 269.073 C 361.500 268.850,361.425 268.667,361.333 268.667 C 361.242 268.667,361.167 268.404,361.167 268.083 C 361.167 267.762,361.097 267.500,361.012 267.500 C 360.927 267.500,360.806 267.087,360.743 266.581 C 360.679 266.076,360.561 265.621,360.481 265.571 C 360.400 265.521,360.333 265.297,360.333 265.073 C 360.333 264.850,360.258 264.667,360.167 264.667 C 360.075 264.667,360.000 264.484,360.000 264.260 C 360.000 264.036,359.935 263.813,359.856 263.764 C 359.776 263.715,359.746 263.494,359.788 263.274 C 359.830 263.053,359.783 262.822,359.682 262.760 C 359.582 262.698,359.500 262.464,359.500 262.240 C 359.500 262.016,359.425 261.833,359.333 261.833 C 359.242 261.833,359.167 261.529,359.167 261.157 C 359.167 260.784,359.097 260.523,359.012 260.576 C 358.927 260.628,358.806 260.257,358.743 259.750 C 358.679 259.243,358.561 258.788,358.481 258.738 C 358.400 258.688,358.333 258.426,358.333 258.157 C 358.333 257.887,358.258 257.667,358.167 257.667 C 358.075 257.667,358.000 257.446,358.000 257.177 C 358.000 256.907,357.932 256.644,357.849 256.593 C 357.766 256.542,357.646 256.125,357.583 255.666 C 357.520 255.208,357.401 254.833,357.318 254.833 C 357.235 254.833,357.167 254.571,357.167 254.250 C 357.167 253.929,357.092 253.667,357.000 253.667 C 356.908 253.667,356.833 253.442,356.833 253.167 C 356.833 252.892,356.758 252.667,356.667 252.667 C 356.575 252.667,356.500 252.460,356.501 252.208 C 356.502 251.761,356.106 250.372,355.813 249.794 C 355.733 249.635,355.667 249.316,355.667 249.086 C 355.667 248.855,355.595 248.667,355.508 248.667 C 355.421 248.667,355.299 248.217,355.237 247.667 C 355.175 247.117,355.058 246.667,354.978 246.667 C 354.899 246.667,354.833 246.479,354.833 246.250 C 354.833 246.021,354.758 245.833,354.667 245.833 C 354.575 245.833,354.500 245.571,354.500 245.250 C 354.500 244.929,354.432 244.667,354.350 244.667 C 354.267 244.667,354.147 244.217,354.083 243.667 C 354.019 243.117,353.900 242.667,353.817 242.667 C 353.734 242.667,353.667 242.442,353.667 242.167 C 353.667 241.892,353.592 241.667,353.500 241.667 C 353.408 241.667,353.333 241.479,353.333 241.250 C 353.333 241.021,353.258 240.833,353.167 240.833 C 353.075 240.833,353.015 240.777,353.033 240.708 C 353.116 240.394,352.782 238.925,352.581 238.724 C 352.218 238.361,315.500 238.394,315.500 238.758 M281.222 263.500 C 281.368 264.554,281.532 265.867,281.587 266.417 C 281.672 267.274,281.881 268.691,282.258 270.958 C 282.329 271.383,282.290 271.500,282.080 271.500 C 281.932 271.500,281.243 271.762,280.549 272.083 C 279.855 272.404,279.229 272.667,279.158 272.667 C 279.087 272.667,278.469 272.929,277.784 273.250 C 277.099 273.571,276.452 273.833,276.347 273.833 C 276.242 273.833,275.795 274.016,275.355 274.239 C 274.005 274.923,272.570 275.385,272.877 275.036 C 273.015 274.879,273.350 274.337,273.620 273.833 C 273.890 273.329,274.536 272.186,275.056 271.293 C 275.575 270.400,276.000 269.630,276.000 269.581 C 276.000 269.533,276.189 269.207,276.420 268.858 C 276.651 268.509,277.008 267.915,277.212 267.539 C 277.883 266.304,278.661 264.937,279.416 263.667 C 279.825 262.979,280.279 262.163,280.425 261.853 C 280.797 261.061,280.920 261.316,281.222 263.500 " stroke="none" fill="#6C8ACC" fill-rule="evenodd"></path><path id="path1" d="M22.083 84.426 C 12.917 84.539,4.198 84.640,2.708 84.649 C -0.277 84.668,-0.255 84.659,0.607 85.592 C 0.940 85.954,1.738 86.850,2.380 87.583 C 3.022 88.317,3.743 89.118,3.982 89.365 C 4.807 90.216,5.449 90.921,6.681 92.331 C 7.360 93.109,8.029 93.861,8.167 94.003 C 8.304 94.144,9.235 95.176,10.236 96.297 C 11.236 97.417,12.117 98.333,12.194 98.333 C 12.271 98.333,12.333 98.434,12.333 98.557 C 12.333 98.679,12.577 99.014,12.875 99.300 C 13.508 99.908,13.831 100.258,15.524 102.167 L 16.781 103.583 16.892 143.917 C 16.953 166.100,17.051 185.583,17.110 187.212 L 17.218 190.173 33.401 190.063 C 42.301 190.003,49.612 189.930,49.646 189.900 C 49.715 189.842,49.446 187.903,48.577 182.167 C 48.264 180.104,47.906 177.720,47.782 176.870 L 47.555 175.322 48.069 175.845 C 48.904 176.694,55.319 182.802,59.167 186.412 C 60.038 187.229,61.237 188.378,61.833 188.965 L 62.917 190.032 79.917 189.917 C 89.267 189.853,96.976 189.746,97.048 189.678 C 97.121 189.609,96.896 189.256,96.548 188.892 C 96.201 188.529,95.467 187.718,94.917 187.091 C 94.367 186.463,93.654 185.678,93.333 185.345 C 93.013 185.012,91.513 183.355,90.000 181.662 C 88.487 179.969,86.950 178.262,86.583 177.867 C 86.217 177.473,85.654 176.869,85.333 176.525 C 85.012 176.181,84.300 175.384,83.750 174.753 C 83.200 174.122,82.595 173.451,82.405 173.262 C 82.215 173.072,81.056 171.792,79.830 170.417 C 78.604 169.042,77.447 167.762,77.259 167.573 C 77.071 167.385,76.467 166.713,75.917 166.081 C 75.367 165.448,74.684 164.703,74.401 164.424 C 74.117 164.145,73.331 163.279,72.654 162.500 C 71.978 161.721,71.339 161.008,71.236 160.917 C 71.132 160.825,70.349 159.962,69.495 159.000 C 67.961 157.270,67.314 156.557,66.396 155.583 C 66.136 155.308,65.370 154.446,64.693 153.667 C 64.016 152.887,63.296 152.100,63.093 151.917 C 62.890 151.733,62.167 150.946,61.487 150.167 C 60.807 149.387,60.212 148.712,60.167 148.667 C 60.121 148.621,59.376 147.796,58.512 146.833 C 56.832 144.961,56.189 144.258,55.314 143.333 C 55.011 143.012,54.205 142.113,53.523 141.335 C 52.842 140.557,52.089 139.720,51.850 139.474 C 50.612 138.198,50.569 138.447,52.415 136.195 C 52.966 135.523,53.501 134.824,53.604 134.642 C 53.707 134.461,53.978 134.111,54.207 133.864 C 54.436 133.618,55.200 132.667,55.905 131.750 C 56.610 130.833,57.373 129.858,57.600 129.583 C 57.945 129.168,58.455 128.515,59.297 127.417 C 59.367 127.325,59.926 126.612,60.539 125.833 C 61.152 125.054,61.802 124.229,61.982 124.000 C 62.162 123.771,62.559 123.273,62.863 122.895 C 63.168 122.516,63.717 121.812,64.083 121.331 C 64.867 120.302,65.782 119.156,66.492 118.313 C 66.771 117.981,67.000 117.631,67.000 117.535 C 67.000 117.439,67.070 117.336,67.156 117.306 C 67.242 117.275,67.808 116.612,68.414 115.833 C 69.658 114.231,69.989 113.811,70.879 112.701 C 71.225 112.270,71.564 111.842,71.633 111.750 C 71.702 111.658,72.132 111.106,72.588 110.523 C 73.044 109.939,73.604 109.217,73.833 108.918 C 75.689 106.496,77.778 103.893,77.953 103.783 C 78.071 103.710,78.167 103.569,78.167 103.470 C 78.167 103.371,78.433 102.981,78.758 102.604 C 79.084 102.226,79.406 101.842,79.474 101.750 C 79.776 101.343,82.094 98.398,82.247 98.227 C 82.340 98.123,82.717 97.645,83.083 97.166 C 83.450 96.686,83.996 95.984,84.296 95.605 C 84.596 95.227,85.121 94.556,85.462 94.115 C 85.804 93.674,86.327 93.027,86.625 92.678 C 86.923 92.329,87.167 91.965,87.167 91.869 C 87.167 91.773,87.237 91.669,87.323 91.639 C 87.408 91.608,88.027 90.868,88.698 89.995 C 89.368 89.121,90.009 88.296,90.121 88.161 C 90.466 87.748,91.667 86.260,91.797 86.083 C 91.864 85.992,92.163 85.606,92.460 85.226 C 92.757 84.846,93.000 84.452,93.000 84.351 C 93.000 84.140,74.192 84.091,64.456 84.277 L 58.691 84.387 57.167 86.152 C 56.329 87.122,55.418 88.179,55.144 88.500 C 54.869 88.821,54.443 89.316,54.197 89.600 C 53.951 89.884,53.442 90.484,53.065 90.933 C 52.259 91.894,49.203 95.493,48.479 96.333 C 48.203 96.654,47.753 97.179,47.479 97.500 C 47.204 97.821,46.816 98.254,46.615 98.462 L 46.250 98.841 46.147 94.379 C 46.090 91.925,46.034 88.623,46.022 87.042 L 46.000 84.167 42.375 84.193 C 40.381 84.208,31.250 84.313,22.083 84.426 M265.458 84.792 C 257.638 84.819,253.000 84.895,253.000 84.995 C 253.000 85.138,255.035 87.458,257.170 89.750 C 257.597 90.208,258.239 90.914,258.598 91.318 C 258.957 91.722,259.478 92.284,259.756 92.568 C 260.034 92.851,260.814 93.707,261.491 94.468 C 262.167 95.230,262.952 96.094,263.235 96.387 C 263.518 96.681,264.387 97.632,265.167 98.499 C 268.152 101.824,268.549 102.260,268.894 102.583 L 269.250 102.917 269.250 140.973 L 269.250 179.029 269.694 179.389 C 269.939 179.588,270.629 180.113,271.229 180.557 C 271.828 181.001,272.528 181.545,272.784 181.766 C 273.040 181.986,273.303 182.166,273.369 182.166 C 273.434 182.167,273.621 182.301,273.785 182.466 C 273.949 182.630,274.683 183.210,275.417 183.754 C 276.575 184.613,277.178 185.079,278.137 185.857 C 278.652 186.274,281.741 188.598,281.984 188.750 C 282.130 188.842,282.523 189.142,282.856 189.417 C 283.190 189.692,283.677 190.084,283.940 190.289 L 284.417 190.662 306.458 190.664 C 328.070 190.667,328.500 190.660,328.500 190.347 C 328.500 190.172,328.439 190.003,328.365 189.972 C 328.290 189.942,327.903 189.467,327.504 188.917 C 327.105 188.367,326.679 187.804,326.556 187.667 C 326.296 187.376,325.622 186.511,324.333 184.815 C 323.829 184.152,323.285 183.493,323.125 183.351 C 322.965 183.209,322.833 183.008,322.833 182.905 C 322.833 182.803,322.674 182.575,322.479 182.401 C 322.283 182.226,321.965 181.847,321.770 181.558 C 321.178 180.678,319.790 178.920,319.641 178.861 C 319.563 178.831,319.500 178.727,319.500 178.631 C 319.500 178.535,319.256 178.172,318.958 177.823 C 318.660 177.475,318.192 176.885,317.917 176.513 C 317.642 176.141,317.304 175.695,317.167 175.522 C 317.029 175.350,316.542 174.738,316.083 174.163 C 315.625 173.589,315.166 172.974,315.063 172.798 C 314.960 172.623,314.692 172.277,314.469 172.031 C 314.245 171.785,313.955 171.422,313.823 171.225 C 313.339 170.500,311.944 168.748,311.807 168.694 C 311.730 168.664,311.667 168.561,311.667 168.465 C 311.667 168.369,311.435 168.019,311.153 167.687 C 310.584 167.020,308.421 164.251,307.951 163.588 L 307.651 163.167 301.747 163.167 L 295.844 163.167 295.795 158.542 C 295.768 155.998,295.727 150.660,295.703 146.680 C 295.671 141.351,295.607 139.379,295.460 139.202 C 295.257 138.957,308.974 139.001,316.292 139.270 C 319.109 139.373,319.487 139.271,318.857 138.575 C 318.778 138.488,318.318 137.554,317.835 136.500 C 317.351 135.446,316.508 133.646,315.959 132.500 C 315.411 131.354,314.482 129.404,313.894 128.167 C 313.307 126.929,312.573 125.392,312.264 124.750 C 311.955 124.108,311.348 122.833,310.915 121.917 C 308.253 116.276,307.352 114.374,306.849 113.333 L 306.567 112.750 301.309 112.706 L 296.050 112.662 295.942 106.873 C 295.883 103.689,295.785 97.390,295.725 92.875 L 295.615 84.667 286.766 84.707 C 281.899 84.730,272.310 84.768,265.458 84.792 M181.833 113.078 C 181.833 113.212,182.330 113.794,182.936 114.370 C 183.543 114.945,184.470 115.829,184.996 116.333 C 185.522 116.837,186.759 118.000,187.745 118.917 C 188.732 119.833,190.077 121.108,190.736 121.750 C 191.395 122.392,192.494 123.442,193.177 124.083 C 194.528 125.351,199.279 129.828,201.401 131.833 C 202.129 132.521,203.180 133.529,203.737 134.074 C 204.294 134.619,205.117 135.395,205.565 135.798 L 206.380 136.532 216.440 136.409 L 226.500 136.286 226.500 137.643 C 226.500 138.503,226.434 139.000,226.320 139.000 C 226.198 139.000,226.177 139.347,226.256 140.083 L 226.372 141.167 216.061 141.171 L 205.750 141.175 200.667 145.604 C 197.871 148.041,195.027 150.532,194.348 151.142 C 193.668 151.751,192.450 152.813,191.641 153.500 L 190.169 154.750 190.168 165.003 L 190.167 175.255 194.344 179.336 C 196.641 181.580,199.960 184.823,201.719 186.542 L 204.917 189.666 220.083 189.665 C 228.425 189.665,240.387 189.744,246.667 189.842 C 252.946 189.940,260.096 189.996,262.555 189.968 L 267.027 189.917 265.889 188.669 C 265.262 187.983,264.487 187.146,264.167 186.809 C 263.846 186.472,263.133 185.688,262.583 185.067 C 262.033 184.445,261.321 183.667,261.000 183.337 C 260.679 183.007,259.035 181.202,257.347 179.327 C 255.658 177.451,254.102 175.745,253.888 175.535 L 253.500 175.153 253.492 150.535 L 253.485 125.917 251.201 123.758 C 247.768 120.515,242.417 115.406,241.022 114.042 L 239.787 112.833 210.810 112.833 C 185.450 112.833,181.833 112.864,181.833 113.078 M150.583 113.366 C 142.792 113.444,127.023 113.463,115.542 113.409 C 98.289 113.326,94.667 113.347,94.667 113.530 C 94.668 113.651,95.249 114.432,95.959 115.266 C 96.669 116.100,97.475 117.065,97.750 117.410 C 98.025 117.755,98.369 118.160,98.514 118.310 C 98.659 118.461,99.361 119.315,100.074 120.208 C 100.787 121.102,101.437 121.833,101.518 121.833 C 101.600 121.833,101.667 121.913,101.667 122.010 C 101.667 122.108,102.173 122.771,102.792 123.484 C 103.410 124.196,104.479 125.480,105.167 126.336 C 105.854 127.191,106.623 128.096,106.875 128.346 C 107.127 128.596,107.333 128.879,107.333 128.976 C 107.333 129.072,107.502 129.278,107.708 129.434 L 108.083 129.716 107.848 152.153 L 107.613 174.589 108.265 175.434 C 108.623 175.899,109.142 176.570,109.417 176.926 C 109.692 177.281,110.029 177.695,110.167 177.845 C 110.304 177.995,111.017 178.887,111.750 179.828 C 112.483 180.768,113.496 182.046,114.000 182.667 C 114.504 183.288,115.517 184.564,116.250 185.503 C 116.983 186.441,117.771 187.423,118.000 187.684 C 118.229 187.945,118.679 188.491,119.000 188.897 C 119.781 189.885,118.447 189.801,135.083 189.912 C 150.373 190.013,171.245 190.247,181.708 190.434 C 187.654 190.540,188.493 190.473,187.231 189.993 C 186.991 189.902,186.597 189.675,186.356 189.490 C 186.114 189.304,185.467 188.870,184.917 188.525 C 184.367 188.181,183.487 187.621,182.961 187.283 C 182.435 186.944,181.960 186.667,181.905 186.667 C 181.850 186.667,181.492 186.453,181.111 186.192 C 180.729 185.930,179.892 185.394,179.250 185.001 C 178.608 184.607,177.896 184.160,177.667 184.007 C 177.222 183.711,175.617 182.749,174.868 182.331 C 174.620 182.192,174.066 181.836,173.637 181.539 C 173.208 181.243,172.812 181.000,172.758 181.000 C 172.667 181.000,171.892 180.505,170.292 179.425 L 169.667 179.003 169.667 146.085 L 169.667 113.167 167.208 113.195 C 165.856 113.210,158.375 113.287,150.583 113.366 M318.167 113.521 C 318.167 113.655,318.898 114.429,319.792 115.242 C 321.511 116.804,325.154 120.187,326.174 121.167 C 326.508 121.487,327.320 122.237,327.979 122.833 C 328.638 123.429,329.719 124.430,330.380 125.058 C 331.042 125.686,332.499 127.036,333.619 128.058 L 335.655 129.917 335.569 136.333 C 335.522 139.862,335.416 149.800,335.333 158.417 L 335.184 174.083 335.615 174.708 C 335.852 175.052,336.110 175.333,336.189 175.333 C 336.269 175.333,336.333 175.432,336.333 175.553 C 336.333 175.674,336.596 176.080,336.917 176.455 C 337.237 176.830,337.500 177.189,337.500 177.254 C 337.500 177.319,337.706 177.614,337.958 177.910 C 338.210 178.206,338.717 178.879,339.083 179.407 C 339.450 179.935,339.975 180.655,340.250 181.006 C 340.525 181.358,341.050 182.065,341.417 182.579 C 341.783 183.092,342.308 183.804,342.583 184.161 C 342.858 184.519,343.608 185.537,344.250 186.424 C 344.892 187.311,345.604 188.273,345.833 188.561 C 346.063 188.849,346.325 189.203,346.417 189.349 C 346.508 189.494,346.808 189.922,347.083 190.300 L 347.583 190.987 367.202 190.994 L 386.821 191.000 387.523 189.958 C 387.909 189.385,388.278 188.879,388.344 188.833 C 388.409 188.787,388.602 188.516,388.773 188.230 C 389.181 187.547,390.988 184.912,391.431 184.354 C 391.622 184.114,392.260 183.214,392.848 182.355 C 393.436 181.495,394.422 180.070,395.040 179.188 C 395.658 178.305,396.653 176.868,397.252 175.993 L 398.340 174.403 398.295 151.076 C 398.253 129.067,398.233 127.719,397.953 127.206 C 397.790 126.908,397.012 126.045,396.224 125.290 C 395.437 124.535,394.291 123.429,393.679 122.833 C 393.066 122.237,391.557 120.790,390.324 119.617 C 389.092 118.444,387.146 116.588,386.000 115.494 L 383.917 113.503 373.167 113.502 C 367.254 113.501,352.460 113.450,340.292 113.389 C 320.957 113.292,318.167 113.309,318.167 113.521 M134.750 117.414 C 135.025 117.722,135.475 118.257,135.750 118.603 C 136.025 118.949,136.513 119.536,136.835 119.908 C 137.157 120.279,137.750 120.996,138.154 121.500 C 138.558 122.004,139.026 122.567,139.193 122.750 C 139.629 123.229,141.728 125.714,143.042 127.306 L 144.167 128.670 144.167 146.252 L 144.167 163.833 139.000 163.833 L 133.833 163.833 133.833 153.125 C 133.833 147.235,133.791 136.492,133.740 129.250 C 133.650 116.528,133.658 116.096,133.949 116.469 C 134.114 116.681,134.475 117.107,134.750 117.414 M368.852 140.042 C 369.057 140.340,369.344 140.707,369.488 140.859 C 369.632 141.010,370.208 141.760,370.767 142.526 L 371.784 143.917 371.876 152.048 L 371.968 160.179 371.593 160.631 C 371.386 160.880,371.112 161.277,370.984 161.515 C 370.855 161.752,370.474 162.359,370.136 162.864 L 369.523 163.782 367.886 163.890 C 364.605 164.107,364.938 164.305,361.917 160.358 C 361.593 159.936,361.584 159.682,361.603 151.821 L 361.622 143.720 362.603 142.355 C 363.142 141.604,363.751 140.749,363.955 140.453 C 364.160 140.158,364.407 139.823,364.504 139.708 C 364.626 139.564,365.265 139.500,366.579 139.500 L 368.477 139.500 368.852 140.042 M231.526 164.381 L 234.301 165.761 233.659 166.131 C 233.306 166.334,232.942 166.500,232.851 166.500 C 232.759 166.500,232.237 166.762,231.689 167.083 C 231.142 167.404,230.614 167.667,230.516 167.667 C 230.418 167.667,229.973 167.892,229.526 168.167 L 228.713 168.667 223.148 168.669 L 217.583 168.670 214.708 167.229 C 211.871 165.807,211.391 165.368,212.639 165.339 C 212.761 165.336,213.308 165.071,213.856 164.750 C 214.403 164.429,214.912 164.167,214.985 164.167 C 215.059 164.167,215.623 163.904,216.238 163.583 L 217.358 163.000 223.054 163.000 L 228.750 163.000 231.526 164.381 M208.500 217.087 C 208.500 217.200,209.482 218.167,209.596 218.167 C 209.629 218.167,209.616 218.073,209.567 217.958 C 209.460 217.709,208.500 216.926,208.500 217.087 M151.456 226.208 C 151.306 226.604,151.332 230.751,151.488 231.250 C 151.598 231.604,151.643 230.908,151.642 228.875 C 151.639 226.067,151.619 225.781,151.456 226.208 M179.403 237.625 C 179.471 237.694,179.990 237.756,180.555 237.764 C 181.241 237.773,181.445 237.737,181.167 237.656 C 180.608 237.491,179.246 237.468,179.403 237.625 M247.336 277.782 C 247.334 277.983,247.408 278.193,247.500 278.250 C 247.712 278.381,247.712 277.995,247.500 277.667 C 247.369 277.463,247.338 277.485,247.336 277.782 M247.667 290.490 C 247.667 290.668,247.742 290.860,247.833 290.917 C 247.928 290.975,248.000 290.835,248.000 290.593 C 248.000 290.359,247.925 290.167,247.833 290.167 C 247.742 290.167,247.667 290.312,247.667 290.490 M250.666 300.916 C 250.881 301.145,251.094 301.295,251.138 301.250 C 251.220 301.169,250.527 300.500,250.362 300.500 C 250.314 300.500,250.451 300.687,250.666 300.916 M281.750 315.667 C 281.807 315.758,282.219 315.833,282.667 315.833 C 283.114 315.833,283.527 315.758,283.583 315.667 C 283.648 315.562,283.304 315.500,282.667 315.500 C 282.029 315.500,281.686 315.562,281.750 315.667 M372.917 315.667 C 372.973 315.758,373.465 315.833,374.010 315.833 C 374.559 315.833,375.000 315.759,375.000 315.667 C 375.000 315.572,374.524 315.500,373.907 315.500 C 373.220 315.500,372.852 315.562,372.917 315.667 " stroke="none" fill="#6ca4cc" fill-rule="evenodd"></path></g></svg>